<mxfile host="Electron" agent="Mozilla/5.0 (Windows NT 10.0; Win64; x64) AppleWebKit/537.36 (KHTML, like Gecko) draw.io/24.7.17 Chrome/128.0.6613.36 Electron/32.0.1 Safari/537.36" version="24.7.17">
  <diagram id="q5GnvB0pN5tUbaIcanIh" name="Diagrama de Clases">
    <mxGraphModel dx="5160" dy="2484" grid="1" gridSize="10" guides="1" tooltips="1" connect="1" arrows="1" fold="1" page="1" pageScale="1" pageWidth="827" pageHeight="1169" math="0" shadow="0">
      <root>
        <mxCell id="0" />
        <mxCell id="1" parent="0" />
        <mxCell id="GeJDQEC-XlV1NRhU4zai-1" value="Fecha" style="swimlane;fontStyle=1;align=center;verticalAlign=top;childLayout=stackLayout;horizontal=1;startSize=25.91111077202691;horizontalStack=0;resizeParent=1;resizeParentMax=0;resizeLast=0;collapsible=0;marginBottom=0;" parent="1" vertex="1">
          <mxGeometry x="60" y="213.08999999999992" width="76" height="116.91111077202692" as="geometry" />
        </mxCell>
        <mxCell id="GeJDQEC-XlV1NRhU4zai-2" value="-int dia" style="text;strokeColor=none;fillColor=none;align=left;verticalAlign=top;spacingLeft=4;spacingRight=4;overflow=hidden;rotatable=0;points=[[0,0.5],[1,0.5]];portConstraint=eastwest;" parent="GeJDQEC-XlV1NRhU4zai-1" vertex="1">
          <mxGeometry y="25.91111077202691" width="76" height="26" as="geometry" />
        </mxCell>
        <mxCell id="GeJDQEC-XlV1NRhU4zai-3" value="-int mes" style="text;strokeColor=none;fillColor=none;align=left;verticalAlign=top;spacingLeft=4;spacingRight=4;overflow=hidden;rotatable=0;points=[[0,0.5],[1,0.5]];portConstraint=eastwest;" parent="GeJDQEC-XlV1NRhU4zai-1" vertex="1">
          <mxGeometry y="51.91111077202691" width="76" height="26" as="geometry" />
        </mxCell>
        <mxCell id="GeJDQEC-XlV1NRhU4zai-4" value="-int anio" style="text;strokeColor=none;fillColor=none;align=left;verticalAlign=top;spacingLeft=4;spacingRight=4;overflow=hidden;rotatable=0;points=[[0,0.5],[1,0.5]];portConstraint=eastwest;" parent="GeJDQEC-XlV1NRhU4zai-1" vertex="1">
          <mxGeometry y="77.91111077202692" width="76" height="26" as="geometry" />
        </mxCell>
        <mxCell id="GeJDQEC-XlV1NRhU4zai-5" style="line;strokeWidth=1;fillColor=none;align=left;verticalAlign=middle;spacingTop=-1;spacingLeft=3;spacingRight=3;rotatable=0;labelPosition=right;points=[];portConstraint=eastwest;strokeColor=inherit;" parent="GeJDQEC-XlV1NRhU4zai-1" vertex="1">
          <mxGeometry y="103.91111077202692" width="76" height="13" as="geometry" />
        </mxCell>
        <mxCell id="GeJDQEC-XlV1NRhU4zai-6" value="Persona" style="swimlane;fontStyle=1;align=center;verticalAlign=top;childLayout=stackLayout;horizontal=1;startSize=24.50666707356771;horizontalStack=0;resizeParent=1;resizeParentMax=0;resizeLast=0;collapsible=0;marginBottom=0;" parent="1" vertex="1">
          <mxGeometry x="210" y="850" width="132" height="186.5066670735677" as="geometry" />
        </mxCell>
        <mxCell id="GeJDQEC-XlV1NRhU4zai-7" value="-int id" style="text;strokeColor=none;fillColor=none;align=left;verticalAlign=top;spacingLeft=4;spacingRight=4;overflow=hidden;rotatable=0;points=[[0,0.5],[1,0.5]];portConstraint=eastwest;" parent="GeJDQEC-XlV1NRhU4zai-6" vertex="1">
          <mxGeometry y="24.50666707356771" width="132" height="25" as="geometry" />
        </mxCell>
        <mxCell id="GeJDQEC-XlV1NRhU4zai-8" value="-int telefono" style="text;strokeColor=none;fillColor=none;align=left;verticalAlign=top;spacingLeft=4;spacingRight=4;overflow=hidden;rotatable=0;points=[[0,0.5],[1,0.5]];portConstraint=eastwest;" parent="GeJDQEC-XlV1NRhU4zai-6" vertex="1">
          <mxGeometry y="49.50666707356771" width="132" height="25" as="geometry" />
        </mxCell>
        <mxCell id="GeJDQEC-XlV1NRhU4zai-9" value="-char tipoFJ" style="text;strokeColor=none;fillColor=none;align=left;verticalAlign=top;spacingLeft=4;spacingRight=4;overflow=hidden;rotatable=0;points=[[0,0.5],[1,0.5]];portConstraint=eastwest;" parent="GeJDQEC-XlV1NRhU4zai-6" vertex="1">
          <mxGeometry y="74.50666707356771" width="132" height="25" as="geometry" />
        </mxCell>
        <mxCell id="GeJDQEC-XlV1NRhU4zai-10" value="-string nombre" style="text;strokeColor=none;fillColor=none;align=left;verticalAlign=top;spacingLeft=4;spacingRight=4;overflow=hidden;rotatable=0;points=[[0,0.5],[1,0.5]];portConstraint=eastwest;" parent="GeJDQEC-XlV1NRhU4zai-6" vertex="1">
          <mxGeometry y="99.50666707356771" width="132" height="25" as="geometry" />
        </mxCell>
        <mxCell id="GeJDQEC-XlV1NRhU4zai-11" value="-string direccion" style="text;strokeColor=none;fillColor=none;align=left;verticalAlign=top;spacingLeft=4;spacingRight=4;overflow=hidden;rotatable=0;points=[[0,0.5],[1,0.5]];portConstraint=eastwest;" parent="GeJDQEC-XlV1NRhU4zai-6" vertex="1">
          <mxGeometry y="124.50666707356771" width="132" height="25" as="geometry" />
        </mxCell>
        <mxCell id="GeJDQEC-XlV1NRhU4zai-12" value="-string email" style="text;strokeColor=none;fillColor=none;align=left;verticalAlign=top;spacingLeft=4;spacingRight=4;overflow=hidden;rotatable=0;points=[[0,0.5],[1,0.5]];portConstraint=eastwest;" parent="GeJDQEC-XlV1NRhU4zai-6" vertex="1">
          <mxGeometry y="149.5066670735677" width="132" height="25" as="geometry" />
        </mxCell>
        <mxCell id="GeJDQEC-XlV1NRhU4zai-13" style="line;strokeWidth=1;fillColor=none;align=left;verticalAlign=middle;spacingTop=-1;spacingLeft=3;spacingRight=3;rotatable=0;labelPosition=right;points=[];portConstraint=eastwest;strokeColor=inherit;" parent="GeJDQEC-XlV1NRhU4zai-6" vertex="1">
          <mxGeometry y="174.5066670735677" width="132" height="12" as="geometry" />
        </mxCell>
        <mxCell id="GeJDQEC-XlV1NRhU4zai-14" value="Usuario" style="swimlane;fontStyle=1;align=center;verticalAlign=top;childLayout=stackLayout;horizontal=1;startSize=26.91428484235491;horizontalStack=0;resizeParent=1;resizeParentMax=0;resizeLast=0;collapsible=0;marginBottom=0;" parent="1" vertex="1">
          <mxGeometry x="37" y="1150" width="173" height="147.9142848423549" as="geometry" />
        </mxCell>
        <mxCell id="GeJDQEC-XlV1NRhU4zai-15" value="-char tipo" style="text;strokeColor=none;fillColor=none;align=left;verticalAlign=top;spacingLeft=4;spacingRight=4;overflow=hidden;rotatable=0;points=[[0,0.5],[1,0.5]];portConstraint=eastwest;" parent="GeJDQEC-XlV1NRhU4zai-14" vertex="1">
          <mxGeometry y="26.91428484235491" width="173" height="27" as="geometry" />
        </mxCell>
        <mxCell id="GeJDQEC-XlV1NRhU4zai-16" value="-char password[20]" style="text;strokeColor=none;fillColor=none;align=left;verticalAlign=top;spacingLeft=4;spacingRight=4;overflow=hidden;rotatable=0;points=[[0,0.5],[1,0.5]];portConstraint=eastwest;" parent="GeJDQEC-XlV1NRhU4zai-14" vertex="1">
          <mxGeometry y="53.91428484235491" width="173" height="27" as="geometry" />
        </mxCell>
        <mxCell id="SspoBiGvNEf38kH1SiPI-25" value="-int edad" style="text;strokeColor=none;fillColor=none;align=left;verticalAlign=top;spacingLeft=4;spacingRight=4;overflow=hidden;rotatable=0;points=[[0,0.5],[1,0.5]];portConstraint=eastwest;" vertex="1" parent="GeJDQEC-XlV1NRhU4zai-14">
          <mxGeometry y="80.9142848423549" width="173" height="27" as="geometry" />
        </mxCell>
        <mxCell id="SspoBiGvNEf38kH1SiPI-26" value="-Fecha nacimiento" style="text;strokeColor=none;fillColor=none;align=left;verticalAlign=top;spacingLeft=4;spacingRight=4;overflow=hidden;rotatable=0;points=[[0,0.5],[1,0.5]];portConstraint=eastwest;" vertex="1" parent="GeJDQEC-XlV1NRhU4zai-14">
          <mxGeometry y="107.9142848423549" width="173" height="27" as="geometry" />
        </mxCell>
        <mxCell id="GeJDQEC-XlV1NRhU4zai-17" style="line;strokeWidth=1;fillColor=none;align=left;verticalAlign=middle;spacingTop=-1;spacingLeft=3;spacingRight=3;rotatable=0;labelPosition=right;points=[];portConstraint=eastwest;strokeColor=inherit;" parent="GeJDQEC-XlV1NRhU4zai-14" vertex="1">
          <mxGeometry y="134.9142848423549" width="173" height="13" as="geometry" />
        </mxCell>
        <mxCell id="GeJDQEC-XlV1NRhU4zai-18" value="Proveedor" style="swimlane;fontStyle=1;align=center;verticalAlign=top;childLayout=stackLayout;horizontal=1;startSize=26.91428484235491;horizontalStack=0;resizeParent=1;resizeParentMax=0;resizeLast=0;collapsible=0;marginBottom=0;" parent="1" vertex="1">
          <mxGeometry x="402.5" y="1150" width="168" height="120.9142848423549" as="geometry" />
        </mxCell>
        <mxCell id="GeJDQEC-XlV1NRhU4zai-19" value="-char condicionPago" style="text;strokeColor=none;fillColor=none;align=left;verticalAlign=top;spacingLeft=4;spacingRight=4;overflow=hidden;rotatable=0;points=[[0,0.5],[1,0.5]];portConstraint=eastwest;" parent="GeJDQEC-XlV1NRhU4zai-18" vertex="1">
          <mxGeometry y="26.91428484235491" width="168" height="27" as="geometry" />
        </mxCell>
        <mxCell id="GeJDQEC-XlV1NRhU4zai-20" value="-float totalCompra" style="text;strokeColor=none;fillColor=none;align=left;verticalAlign=top;spacingLeft=4;spacingRight=4;overflow=hidden;rotatable=0;points=[[0,0.5],[1,0.5]];portConstraint=eastwest;" parent="GeJDQEC-XlV1NRhU4zai-18" vertex="1">
          <mxGeometry y="53.91428484235491" width="168" height="27" as="geometry" />
        </mxCell>
        <mxCell id="SspoBiGvNEf38kH1SiPI-51" value="-Fecha Creacion" style="text;strokeColor=none;fillColor=none;align=left;verticalAlign=top;spacingLeft=4;spacingRight=4;overflow=hidden;rotatable=0;points=[[0,0.5],[1,0.5]];portConstraint=eastwest;" vertex="1" parent="GeJDQEC-XlV1NRhU4zai-18">
          <mxGeometry y="80.9142848423549" width="168" height="27" as="geometry" />
        </mxCell>
        <mxCell id="GeJDQEC-XlV1NRhU4zai-21" style="line;strokeWidth=1;fillColor=none;align=left;verticalAlign=middle;spacingTop=-1;spacingLeft=3;spacingRight=3;rotatable=0;labelPosition=right;points=[];portConstraint=eastwest;strokeColor=inherit;" parent="GeJDQEC-XlV1NRhU4zai-18" vertex="1">
          <mxGeometry y="107.9142848423549" width="168" height="13" as="geometry" />
        </mxCell>
        <mxCell id="GeJDQEC-XlV1NRhU4zai-22" value="Cliente" style="swimlane;fontStyle=1;align=center;verticalAlign=top;childLayout=stackLayout;horizontal=1;startSize=26.91428484235491;horizontalStack=0;resizeParent=1;resizeParentMax=0;resizeLast=0;collapsible=0;marginBottom=0;" parent="1" vertex="1">
          <mxGeometry x="234" y="1150" width="141" height="120.9142848423549" as="geometry" />
        </mxCell>
        <mxCell id="GeJDQEC-XlV1NRhU4zai-23" value="-bool prioritario" style="text;strokeColor=none;fillColor=none;align=left;verticalAlign=top;spacingLeft=4;spacingRight=4;overflow=hidden;rotatable=0;points=[[0,0.5],[1,0.5]];portConstraint=eastwest;" parent="GeJDQEC-XlV1NRhU4zai-22" vertex="1">
          <mxGeometry y="26.91428484235491" width="141" height="27" as="geometry" />
        </mxCell>
        <mxCell id="GeJDQEC-XlV1NRhU4zai-24" value="-float totalVentas" style="text;strokeColor=none;fillColor=none;align=left;verticalAlign=top;spacingLeft=4;spacingRight=4;overflow=hidden;rotatable=0;points=[[0,0.5],[1,0.5]];portConstraint=eastwest;" parent="GeJDQEC-XlV1NRhU4zai-22" vertex="1">
          <mxGeometry y="53.91428484235491" width="141" height="27" as="geometry" />
        </mxCell>
        <mxCell id="SspoBiGvNEf38kH1SiPI-50" value="-Fecha creacion" style="text;strokeColor=none;fillColor=none;align=left;verticalAlign=top;spacingLeft=4;spacingRight=4;overflow=hidden;rotatable=0;points=[[0,0.5],[1,0.5]];portConstraint=eastwest;" vertex="1" parent="GeJDQEC-XlV1NRhU4zai-22">
          <mxGeometry y="80.9142848423549" width="141" height="27" as="geometry" />
        </mxCell>
        <mxCell id="GeJDQEC-XlV1NRhU4zai-25" style="line;strokeWidth=1;fillColor=none;align=left;verticalAlign=middle;spacingTop=-1;spacingLeft=3;spacingRight=3;rotatable=0;labelPosition=right;points=[];portConstraint=eastwest;strokeColor=inherit;" parent="GeJDQEC-XlV1NRhU4zai-22" vertex="1">
          <mxGeometry y="107.9142848423549" width="141" height="13" as="geometry" />
        </mxCell>
        <mxCell id="GeJDQEC-XlV1NRhU4zai-26" value="Recursos" style="swimlane;fontStyle=1;align=center;verticalAlign=top;childLayout=stackLayout;horizontal=1;startSize=24.830768291766827;horizontalStack=0;resizeParent=1;resizeParentMax=0;resizeLast=0;collapsible=0;marginBottom=0;" parent="1" vertex="1">
          <mxGeometry x="217" y="1390" width="158" height="161.83076829176684" as="geometry" />
        </mxCell>
        <mxCell id="GeJDQEC-XlV1NRhU4zai-27" value="-char codigo[30]" style="text;strokeColor=none;fillColor=none;align=left;verticalAlign=top;spacingLeft=4;spacingRight=4;overflow=hidden;rotatable=0;points=[[0,0.5],[1,0.5]];portConstraint=eastwest;" parent="GeJDQEC-XlV1NRhU4zai-26" vertex="1">
          <mxGeometry y="24.830768291766827" width="158" height="25" as="geometry" />
        </mxCell>
        <mxCell id="GeJDQEC-XlV1NRhU4zai-28" value="-string descripcion" style="text;strokeColor=none;fillColor=none;align=left;verticalAlign=top;spacingLeft=4;spacingRight=4;overflow=hidden;rotatable=0;points=[[0,0.5],[1,0.5]];portConstraint=eastwest;" parent="GeJDQEC-XlV1NRhU4zai-26" vertex="1">
          <mxGeometry y="49.83076829176683" width="158" height="25" as="geometry" />
        </mxCell>
        <mxCell id="GeJDQEC-XlV1NRhU4zai-29" value="-string tipoMedicion" style="text;strokeColor=none;fillColor=none;align=left;verticalAlign=top;spacingLeft=4;spacingRight=4;overflow=hidden;rotatable=0;points=[[0,0.5],[1,0.5]];portConstraint=eastwest;" parent="GeJDQEC-XlV1NRhU4zai-26" vertex="1">
          <mxGeometry y="74.83076829176683" width="158" height="25" as="geometry" />
        </mxCell>
        <mxCell id="GeJDQEC-XlV1NRhU4zai-30" value="-int stock" style="text;strokeColor=none;fillColor=none;align=left;verticalAlign=top;spacingLeft=4;spacingRight=4;overflow=hidden;rotatable=0;points=[[0,0.5],[1,0.5]];portConstraint=eastwest;" parent="GeJDQEC-XlV1NRhU4zai-26" vertex="1">
          <mxGeometry y="99.83076829176683" width="158" height="25" as="geometry" />
        </mxCell>
        <mxCell id="GeJDQEC-XlV1NRhU4zai-31" value="-int futuro" style="text;strokeColor=none;fillColor=none;align=left;verticalAlign=top;spacingLeft=4;spacingRight=4;overflow=hidden;rotatable=0;points=[[0,0.5],[1,0.5]];portConstraint=eastwest;" parent="GeJDQEC-XlV1NRhU4zai-26" vertex="1">
          <mxGeometry y="124.83076829176683" width="158" height="25" as="geometry" />
        </mxCell>
        <mxCell id="GeJDQEC-XlV1NRhU4zai-32" style="line;strokeWidth=1;fillColor=none;align=left;verticalAlign=middle;spacingTop=-1;spacingLeft=3;spacingRight=3;rotatable=0;labelPosition=right;points=[];portConstraint=eastwest;strokeColor=inherit;" parent="GeJDQEC-XlV1NRhU4zai-26" vertex="1">
          <mxGeometry y="149.83076829176684" width="158" height="12" as="geometry" />
        </mxCell>
        <mxCell id="GeJDQEC-XlV1NRhU4zai-33" value="Insumos" style="swimlane;fontStyle=1;align=center;verticalAlign=top;childLayout=stackLayout;horizontal=1;startSize=26.91428484235491;horizontalStack=0;resizeParent=1;resizeParentMax=0;resizeLast=0;collapsible=0;marginBottom=0;" parent="1" vertex="1">
          <mxGeometry x="60" y="1641.04" width="171" height="93.9142848423549" as="geometry" />
        </mxCell>
        <mxCell id="GeJDQEC-XlV1NRhU4zai-34" value="-int idProveedor" style="text;strokeColor=none;fillColor=none;align=left;verticalAlign=top;spacingLeft=4;spacingRight=4;overflow=hidden;rotatable=0;points=[[0,0.5],[1,0.5]];portConstraint=eastwest;" parent="GeJDQEC-XlV1NRhU4zai-33" vertex="1">
          <mxGeometry y="26.91428484235491" width="171" height="27" as="geometry" />
        </mxCell>
        <mxCell id="GeJDQEC-XlV1NRhU4zai-35" value="-int precio" style="text;strokeColor=none;fillColor=none;align=left;verticalAlign=top;spacingLeft=4;spacingRight=4;overflow=hidden;rotatable=0;points=[[0,0.5],[1,0.5]];portConstraint=eastwest;" parent="GeJDQEC-XlV1NRhU4zai-33" vertex="1">
          <mxGeometry y="53.91428484235491" width="171" height="27" as="geometry" />
        </mxCell>
        <mxCell id="GeJDQEC-XlV1NRhU4zai-36" style="line;strokeWidth=1;fillColor=none;align=left;verticalAlign=middle;spacingTop=-1;spacingLeft=3;spacingRight=3;rotatable=0;labelPosition=right;points=[];portConstraint=eastwest;strokeColor=inherit;" parent="GeJDQEC-XlV1NRhU4zai-33" vertex="1">
          <mxGeometry y="80.9142848423549" width="171" height="13" as="geometry" />
        </mxCell>
        <mxCell id="GeJDQEC-XlV1NRhU4zai-37" value="Productos" style="swimlane;fontStyle=1;align=center;verticalAlign=top;childLayout=stackLayout;horizontal=1;startSize=26.91428484235491;horizontalStack=0;resizeParent=1;resizeParentMax=0;resizeLast=0;collapsible=0;marginBottom=0;" parent="1" vertex="1">
          <mxGeometry x="360" y="1641.04" width="151" height="66.9142848423549" as="geometry" />
        </mxCell>
        <mxCell id="GeJDQEC-XlV1NRhU4zai-39" value="-int costoTotal" style="text;strokeColor=none;fillColor=none;align=left;verticalAlign=top;spacingLeft=4;spacingRight=4;overflow=hidden;rotatable=0;points=[[0,0.5],[1,0.5]];portConstraint=eastwest;" parent="GeJDQEC-XlV1NRhU4zai-37" vertex="1">
          <mxGeometry y="26.91428484235491" width="151" height="27" as="geometry" />
        </mxCell>
        <mxCell id="GeJDQEC-XlV1NRhU4zai-40" style="line;strokeWidth=1;fillColor=none;align=left;verticalAlign=middle;spacingTop=-1;spacingLeft=3;spacingRight=3;rotatable=0;labelPosition=right;points=[];portConstraint=eastwest;strokeColor=inherit;" parent="GeJDQEC-XlV1NRhU4zai-37" vertex="1">
          <mxGeometry y="53.91428484235491" width="151" height="13" as="geometry" />
        </mxCell>
        <mxCell id="GeJDQEC-XlV1NRhU4zai-41" value="Orden" style="swimlane;fontStyle=1;align=center;verticalAlign=top;childLayout=stackLayout;horizontal=1;startSize=25.91111077202691;horizontalStack=0;resizeParent=1;resizeParentMax=0;resizeLast=0;collapsible=0;marginBottom=0;" parent="1" vertex="1">
          <mxGeometry x="160" y="518.17" width="119" height="142.91111077202692" as="geometry" />
        </mxCell>
        <mxCell id="GeJDQEC-XlV1NRhU4zai-42" value="-int nroRemito" style="text;strokeColor=none;fillColor=none;align=left;verticalAlign=top;spacingLeft=4;spacingRight=4;overflow=hidden;rotatable=0;points=[[0,0.5],[1,0.5]];portConstraint=eastwest;" parent="GeJDQEC-XlV1NRhU4zai-41" vertex="1">
          <mxGeometry y="25.91111077202691" width="119" height="26" as="geometry" />
        </mxCell>
        <mxCell id="GeJDQEC-XlV1NRhU4zai-43" value="-int cantidad" style="text;strokeColor=none;fillColor=none;align=left;verticalAlign=top;spacingLeft=4;spacingRight=4;overflow=hidden;rotatable=0;points=[[0,0.5],[1,0.5]];portConstraint=eastwest;" parent="GeJDQEC-XlV1NRhU4zai-41" vertex="1">
          <mxGeometry y="51.91111077202691" width="119" height="26" as="geometry" />
        </mxCell>
        <mxCell id="GeJDQEC-XlV1NRhU4zai-44" value="-Fecha fecha" style="text;strokeColor=none;fillColor=none;align=left;verticalAlign=top;spacingLeft=4;spacingRight=4;overflow=hidden;rotatable=0;points=[[0,0.5],[1,0.5]];portConstraint=eastwest;" parent="GeJDQEC-XlV1NRhU4zai-41" vertex="1">
          <mxGeometry y="77.91111077202692" width="119" height="26" as="geometry" />
        </mxCell>
        <mxCell id="SspoBiGvNEf38kH1SiPI-54" value="-char estado" style="text;strokeColor=none;fillColor=none;align=left;verticalAlign=top;spacingLeft=4;spacingRight=4;overflow=hidden;rotatable=0;points=[[0,0.5],[1,0.5]];portConstraint=eastwest;" vertex="1" parent="GeJDQEC-XlV1NRhU4zai-41">
          <mxGeometry y="103.91111077202692" width="119" height="26" as="geometry" />
        </mxCell>
        <mxCell id="GeJDQEC-XlV1NRhU4zai-45" style="line;strokeWidth=1;fillColor=none;align=left;verticalAlign=middle;spacingTop=-1;spacingLeft=3;spacingRight=3;rotatable=0;labelPosition=right;points=[];portConstraint=eastwest;strokeColor=inherit;" parent="GeJDQEC-XlV1NRhU4zai-41" vertex="1">
          <mxGeometry y="129.91111077202692" width="119" height="13" as="geometry" />
        </mxCell>
        <mxCell id="GeJDQEC-XlV1NRhU4zai-46" value="OrdenVentas" style="swimlane;fontStyle=1;align=center;verticalAlign=top;childLayout=stackLayout;horizontal=1;startSize=26.91428484235491;horizontalStack=0;resizeParent=1;resizeParentMax=0;resizeLast=0;collapsible=0;marginBottom=0;" parent="1" vertex="1">
          <mxGeometry x="60" y="723.91" width="154" height="93.9142848423549" as="geometry" />
        </mxCell>
        <mxCell id="GeJDQEC-XlV1NRhU4zai-48" value="-int idCliente" style="text;strokeColor=none;fillColor=none;align=left;verticalAlign=top;spacingLeft=4;spacingRight=4;overflow=hidden;rotatable=0;points=[[0,0.5],[1,0.5]];portConstraint=eastwest;" parent="GeJDQEC-XlV1NRhU4zai-46" vertex="1">
          <mxGeometry y="26.91428484235491" width="154" height="27" as="geometry" />
        </mxCell>
        <mxCell id="GeJDQEC-XlV1NRhU4zai-47" value="-char idProducto[30]" style="text;strokeColor=none;fillColor=none;align=left;verticalAlign=top;spacingLeft=4;spacingRight=4;overflow=hidden;rotatable=0;points=[[0,0.5],[1,0.5]];portConstraint=eastwest;" parent="GeJDQEC-XlV1NRhU4zai-46" vertex="1">
          <mxGeometry y="53.91428484235491" width="154" height="27" as="geometry" />
        </mxCell>
        <mxCell id="GeJDQEC-XlV1NRhU4zai-49" style="line;strokeWidth=1;fillColor=none;align=left;verticalAlign=middle;spacingTop=-1;spacingLeft=3;spacingRight=3;rotatable=0;labelPosition=right;points=[];portConstraint=eastwest;strokeColor=inherit;" parent="GeJDQEC-XlV1NRhU4zai-46" vertex="1">
          <mxGeometry y="80.9142848423549" width="154" height="13" as="geometry" />
        </mxCell>
        <mxCell id="GeJDQEC-XlV1NRhU4zai-50" value="OrdenCompras" style="swimlane;fontStyle=1;align=center;verticalAlign=top;childLayout=stackLayout;horizontal=1;startSize=26.91428484235491;horizontalStack=0;resizeParent=1;resizeParentMax=0;resizeLast=0;collapsible=0;marginBottom=0;" parent="1" vertex="1">
          <mxGeometry x="250" y="723.91" width="171" height="93.9142848423549" as="geometry" />
        </mxCell>
        <mxCell id="GeJDQEC-XlV1NRhU4zai-51" value="-int idProveedor" style="text;strokeColor=none;fillColor=none;align=left;verticalAlign=top;spacingLeft=4;spacingRight=4;overflow=hidden;rotatable=0;points=[[0,0.5],[1,0.5]];portConstraint=eastwest;" parent="GeJDQEC-XlV1NRhU4zai-50" vertex="1">
          <mxGeometry y="26.91428484235491" width="171" height="27" as="geometry" />
        </mxCell>
        <mxCell id="GeJDQEC-XlV1NRhU4zai-52" value="-char idInsumo[30]" style="text;strokeColor=none;fillColor=none;align=left;verticalAlign=top;spacingLeft=4;spacingRight=4;overflow=hidden;rotatable=0;points=[[0,0.5],[1,0.5]];portConstraint=eastwest;" parent="GeJDQEC-XlV1NRhU4zai-50" vertex="1">
          <mxGeometry y="53.91428484235491" width="171" height="27" as="geometry" />
        </mxCell>
        <mxCell id="GeJDQEC-XlV1NRhU4zai-53" style="line;strokeWidth=1;fillColor=none;align=left;verticalAlign=middle;spacingTop=-1;spacingLeft=3;spacingRight=3;rotatable=0;labelPosition=right;points=[];portConstraint=eastwest;strokeColor=inherit;" parent="GeJDQEC-XlV1NRhU4zai-50" vertex="1">
          <mxGeometry y="80.9142848423549" width="171" height="13" as="geometry" />
        </mxCell>
        <mxCell id="GeJDQEC-XlV1NRhU4zai-60" value="Devoluciones" style="swimlane;fontStyle=1;align=center;verticalAlign=top;childLayout=stackLayout;horizontal=1;startSize=25.272727272727273;horizontalStack=0;resizeParent=1;resizeParentMax=0;resizeLast=0;collapsible=0;marginBottom=0;" parent="1" vertex="1">
          <mxGeometry x="410" y="24.82" width="130" height="188.27272727272728" as="geometry" />
        </mxCell>
        <mxCell id="GeJDQEC-XlV1NRhU4zai-61" value="-int cantidad" style="text;strokeColor=none;fillColor=none;align=left;verticalAlign=top;spacingLeft=4;spacingRight=4;overflow=hidden;rotatable=0;points=[[0,0.5],[1,0.5]];portConstraint=eastwest;" parent="GeJDQEC-XlV1NRhU4zai-60" vertex="1">
          <mxGeometry y="25.272727272727273" width="130" height="25" as="geometry" />
        </mxCell>
        <mxCell id="SspoBiGvNEf38kH1SiPI-53" value="-char recurso[30]" style="text;strokeColor=none;fillColor=none;align=left;verticalAlign=top;spacingLeft=4;spacingRight=4;overflow=hidden;rotatable=0;points=[[0,0.5],[1,0.5]];portConstraint=eastwest;" vertex="1" parent="GeJDQEC-XlV1NRhU4zai-60">
          <mxGeometry y="50.27272727272727" width="130" height="25" as="geometry" />
        </mxCell>
        <mxCell id="GeJDQEC-XlV1NRhU4zai-62" value="-Insumo insumo" style="text;strokeColor=none;fillColor=none;align=left;verticalAlign=top;spacingLeft=4;spacingRight=4;overflow=hidden;rotatable=0;points=[[0,0.5],[1,0.5]];portConstraint=eastwest;" parent="GeJDQEC-XlV1NRhU4zai-60" vertex="1">
          <mxGeometry y="75.27272727272728" width="130" height="25" as="geometry" />
        </mxCell>
        <mxCell id="GeJDQEC-XlV1NRhU4zai-63" value="-Fecha fecha" style="text;strokeColor=none;fillColor=none;align=left;verticalAlign=top;spacingLeft=4;spacingRight=4;overflow=hidden;rotatable=0;points=[[0,0.5],[1,0.5]];portConstraint=eastwest;" parent="GeJDQEC-XlV1NRhU4zai-60" vertex="1">
          <mxGeometry y="100.27272727272728" width="130" height="25" as="geometry" />
        </mxCell>
        <mxCell id="GeJDQEC-XlV1NRhU4zai-64" value="-string motivo" style="text;strokeColor=none;fillColor=none;align=left;verticalAlign=top;spacingLeft=4;spacingRight=4;overflow=hidden;rotatable=0;points=[[0,0.5],[1,0.5]];portConstraint=eastwest;" parent="GeJDQEC-XlV1NRhU4zai-60" vertex="1">
          <mxGeometry y="125.27272727272728" width="130" height="25" as="geometry" />
        </mxCell>
        <mxCell id="SspoBiGvNEf38kH1SiPI-4" value="-char tipo" style="text;strokeColor=none;fillColor=none;align=left;verticalAlign=top;spacingLeft=4;spacingRight=4;overflow=hidden;rotatable=0;points=[[0,0.5],[1,0.5]];portConstraint=eastwest;" vertex="1" parent="GeJDQEC-XlV1NRhU4zai-60">
          <mxGeometry y="150.27272727272728" width="130" height="25" as="geometry" />
        </mxCell>
        <mxCell id="GeJDQEC-XlV1NRhU4zai-65" style="line;strokeWidth=1;fillColor=none;align=left;verticalAlign=middle;spacingTop=-1;spacingLeft=3;spacingRight=3;rotatable=0;labelPosition=right;points=[];portConstraint=eastwest;strokeColor=inherit;" parent="GeJDQEC-XlV1NRhU4zai-60" vertex="1">
          <mxGeometry y="175.27272727272728" width="130" height="13" as="geometry" />
        </mxCell>
        <mxCell id="GeJDQEC-XlV1NRhU4zai-66" value="Scrap" style="swimlane;fontStyle=1;align=center;verticalAlign=top;childLayout=stackLayout;horizontal=1;startSize=25.91111077202691;horizontalStack=0;resizeParent=1;resizeParentMax=0;resizeLast=0;collapsible=0;marginBottom=0;" parent="1" vertex="1">
          <mxGeometry x="410" y="234.8" width="130" height="142.91111077202692" as="geometry" />
        </mxCell>
        <mxCell id="GeJDQEC-XlV1NRhU4zai-67" value="-int cantidad" style="text;strokeColor=none;fillColor=none;align=left;verticalAlign=top;spacingLeft=4;spacingRight=4;overflow=hidden;rotatable=0;points=[[0,0.5],[1,0.5]];portConstraint=eastwest;" parent="GeJDQEC-XlV1NRhU4zai-66" vertex="1">
          <mxGeometry y="25.91111077202691" width="130" height="26" as="geometry" />
        </mxCell>
        <mxCell id="SspoBiGvNEf38kH1SiPI-43" value="-Fecha fecha" style="text;strokeColor=none;fillColor=none;align=left;verticalAlign=top;spacingLeft=4;spacingRight=4;overflow=hidden;rotatable=0;points=[[0,0.5],[1,0.5]];portConstraint=eastwest;" vertex="1" parent="GeJDQEC-XlV1NRhU4zai-66">
          <mxGeometry y="51.91111077202691" width="130" height="26" as="geometry" />
        </mxCell>
        <mxCell id="GeJDQEC-XlV1NRhU4zai-68" value="-char idRecurso[30]" style="text;strokeColor=none;fillColor=none;align=left;verticalAlign=top;spacingLeft=4;spacingRight=4;overflow=hidden;rotatable=0;points=[[0,0.5],[1,0.5]];portConstraint=eastwest;" parent="GeJDQEC-XlV1NRhU4zai-66" vertex="1">
          <mxGeometry y="77.91111077202692" width="130" height="26" as="geometry" />
        </mxCell>
        <mxCell id="GeJDQEC-XlV1NRhU4zai-69" value="-string motivo" style="text;strokeColor=none;fillColor=none;align=left;verticalAlign=top;spacingLeft=4;spacingRight=4;overflow=hidden;rotatable=0;points=[[0,0.5],[1,0.5]];portConstraint=eastwest;" parent="GeJDQEC-XlV1NRhU4zai-66" vertex="1">
          <mxGeometry y="103.91111077202692" width="130" height="26" as="geometry" />
        </mxCell>
        <mxCell id="GeJDQEC-XlV1NRhU4zai-70" style="line;strokeWidth=1;fillColor=none;align=left;verticalAlign=middle;spacingTop=-1;spacingLeft=3;spacingRight=3;rotatable=0;labelPosition=right;points=[];portConstraint=eastwest;strokeColor=inherit;" parent="GeJDQEC-XlV1NRhU4zai-66" vertex="1">
          <mxGeometry y="129.91111077202692" width="130" height="13" as="geometry" />
        </mxCell>
        <mxCell id="GeJDQEC-XlV1NRhU4zai-76" value="Factura" style="swimlane;fontStyle=1;align=center;verticalAlign=top;childLayout=stackLayout;horizontal=1;startSize=25.91111077202691;horizontalStack=0;resizeParent=1;resizeParentMax=0;resizeLast=0;collapsible=0;marginBottom=0;" parent="1" vertex="1">
          <mxGeometry x="410" y="390" width="130" height="116.91111077202692" as="geometry" />
        </mxCell>
        <mxCell id="GeJDQEC-XlV1NRhU4zai-77" value="-int nroFactura" style="text;strokeColor=none;fillColor=none;align=left;verticalAlign=top;spacingLeft=4;spacingRight=4;overflow=hidden;rotatable=0;points=[[0,0.5],[1,0.5]];portConstraint=eastwest;" parent="GeJDQEC-XlV1NRhU4zai-76" vertex="1">
          <mxGeometry y="25.91111077202691" width="130" height="26" as="geometry" />
        </mxCell>
        <mxCell id="GeJDQEC-XlV1NRhU4zai-78" value="-Fecha fecha" style="text;strokeColor=none;fillColor=none;align=left;verticalAlign=top;spacingLeft=4;spacingRight=4;overflow=hidden;rotatable=0;points=[[0,0.5],[1,0.5]];portConstraint=eastwest;" parent="GeJDQEC-XlV1NRhU4zai-76" vertex="1">
          <mxGeometry y="51.91111077202691" width="130" height="26" as="geometry" />
        </mxCell>
        <mxCell id="GeJDQEC-XlV1NRhU4zai-79" value="-int monto" style="text;strokeColor=none;fillColor=none;align=left;verticalAlign=top;spacingLeft=4;spacingRight=4;overflow=hidden;rotatable=0;points=[[0,0.5],[1,0.5]];portConstraint=eastwest;" parent="GeJDQEC-XlV1NRhU4zai-76" vertex="1">
          <mxGeometry y="77.91111077202692" width="130" height="26" as="geometry" />
        </mxCell>
        <mxCell id="GeJDQEC-XlV1NRhU4zai-80" style="line;strokeWidth=1;fillColor=none;align=left;verticalAlign=middle;spacingTop=-1;spacingLeft=3;spacingRight=3;rotatable=0;labelPosition=right;points=[];portConstraint=eastwest;strokeColor=inherit;" parent="GeJDQEC-XlV1NRhU4zai-76" vertex="1">
          <mxGeometry y="103.91111077202692" width="130" height="13" as="geometry" />
        </mxCell>
        <mxCell id="GeJDQEC-XlV1NRhU4zai-81" value="" style="curved=1;startArrow=block;startSize=16;startFill=0;endArrow=none;exitX=0.25;exitY=1;entryX=0.5;entryY=0;rounded=0;exitDx=0;exitDy=0;" parent="1" source="GeJDQEC-XlV1NRhU4zai-6" target="GeJDQEC-XlV1NRhU4zai-22" edge="1">
          <mxGeometry relative="1" as="geometry">
            <Array as="points" />
          </mxGeometry>
        </mxCell>
        <mxCell id="GeJDQEC-XlV1NRhU4zai-82" value="" style="curved=1;startArrow=block;startSize=16;startFill=0;endArrow=none;exitX=1;exitY=1;entryX=0.44;entryY=0;rounded=0;exitDx=0;exitDy=0;entryDx=0;entryDy=0;entryPerimeter=0;" parent="1" source="GeJDQEC-XlV1NRhU4zai-6" target="GeJDQEC-XlV1NRhU4zai-18" edge="1">
          <mxGeometry relative="1" as="geometry">
            <Array as="points">
              <mxPoint x="440" y="1090" />
            </Array>
          </mxGeometry>
        </mxCell>
        <mxCell id="GeJDQEC-XlV1NRhU4zai-83" value="" style="curved=1;startArrow=block;startSize=16;startFill=0;endArrow=none;exitX=0;exitY=1;entryX=0.93;entryY=0;rounded=0;exitDx=0;exitDy=0;" parent="1" source="GeJDQEC-XlV1NRhU4zai-6" target="GeJDQEC-XlV1NRhU4zai-14" edge="1">
          <mxGeometry relative="1" as="geometry">
            <Array as="points">
              <mxPoint x="180" y="1100" />
            </Array>
          </mxGeometry>
        </mxCell>
        <mxCell id="GeJDQEC-XlV1NRhU4zai-85" value="&quot;contiene una&quot;" style="curved=1;startArrow=diamondThin;startSize=14;startFill=1;endArrow=none;entryX=0.5;entryY=1;rounded=0;exitX=0;exitY=0.5;exitDx=0;exitDy=0;entryDx=0;entryDy=0;" parent="1" source="GeJDQEC-XlV1NRhU4zai-44" target="GeJDQEC-XlV1NRhU4zai-1" edge="1">
          <mxGeometry x="-0.0924" y="-1" relative="1" as="geometry">
            <Array as="points">
              <mxPoint x="40" y="470" />
            </Array>
            <mxPoint x="-160" y="670" as="sourcePoint" />
            <mxPoint x="-1" as="offset" />
          </mxGeometry>
        </mxCell>
        <mxCell id="GeJDQEC-XlV1NRhU4zai-87" value="&quot;contiene una&quot;" style="curved=1;startArrow=diamondThin;startSize=14;startFill=1;endArrow=none;exitX=0;exitY=0.5;entryX=1;entryY=0.5;rounded=0;entryDx=0;entryDy=0;exitDx=0;exitDy=0;" parent="1" source="GeJDQEC-XlV1NRhU4zai-63" target="GeJDQEC-XlV1NRhU4zai-2" edge="1">
          <mxGeometry relative="1" as="geometry">
            <Array as="points">
              <mxPoint x="250" y="220" />
            </Array>
          </mxGeometry>
        </mxCell>
        <mxCell id="GeJDQEC-XlV1NRhU4zai-90" value="&quot;contiene una&quot;" style="curved=1;startArrow=diamondThin;startSize=14;startFill=1;endArrow=none;exitX=0;exitY=0.5;entryX=1.014;entryY=0.961;rounded=0;entryDx=0;entryDy=0;exitDx=0;exitDy=0;entryPerimeter=0;" parent="1" source="GeJDQEC-XlV1NRhU4zai-78" target="GeJDQEC-XlV1NRhU4zai-4" edge="1">
          <mxGeometry relative="1" as="geometry">
            <Array as="points">
              <mxPoint x="260" y="390" />
            </Array>
          </mxGeometry>
        </mxCell>
        <mxCell id="GeJDQEC-XlV1NRhU4zai-91" value="" style="curved=1;startArrow=block;startSize=16;startFill=0;endArrow=none;entryX=0.26;entryY=0;rounded=0;exitX=0.5;exitY=1;exitDx=0;exitDy=0;" parent="1" source="GeJDQEC-XlV1NRhU4zai-41" target="GeJDQEC-XlV1NRhU4zai-46" edge="1">
          <mxGeometry relative="1" as="geometry">
            <Array as="points" />
            <mxPoint x="347" y="713.91" as="sourcePoint" />
          </mxGeometry>
        </mxCell>
        <mxCell id="GeJDQEC-XlV1NRhU4zai-92" value="" style="curved=1;startArrow=block;startSize=16;startFill=0;endArrow=none;entryX=0.29;entryY=0;rounded=0;exitX=0.5;exitY=1;exitDx=0;exitDy=0;" parent="1" source="GeJDQEC-XlV1NRhU4zai-41" target="GeJDQEC-XlV1NRhU4zai-50" edge="1">
          <mxGeometry relative="1" as="geometry">
            <Array as="points" />
            <mxPoint x="437" y="650.91" as="sourcePoint" />
          </mxGeometry>
        </mxCell>
        <mxCell id="GeJDQEC-XlV1NRhU4zai-93" value="" style="curved=1;startArrow=block;startSize=16;startFill=0;endArrow=none;exitX=0.12;exitY=1;entryX=0.75;entryY=0;rounded=0;entryDx=0;entryDy=0;" parent="1" source="GeJDQEC-XlV1NRhU4zai-26" target="GeJDQEC-XlV1NRhU4zai-33" edge="1">
          <mxGeometry relative="1" as="geometry">
            <Array as="points">
              <mxPoint x="247" y="1632.46" />
            </Array>
          </mxGeometry>
        </mxCell>
        <mxCell id="GeJDQEC-XlV1NRhU4zai-94" value="" style="curved=1;startArrow=block;startSize=16;startFill=0;endArrow=none;exitX=0.81;exitY=1;entryX=0.14;entryY=0;rounded=0;" parent="1" source="GeJDQEC-XlV1NRhU4zai-26" target="GeJDQEC-XlV1NRhU4zai-37" edge="1">
          <mxGeometry relative="1" as="geometry">
            <Array as="points" />
          </mxGeometry>
        </mxCell>
        <mxCell id="SspoBiGvNEf38kH1SiPI-6" value="ComposicionSemielaborado" style="swimlane;fontStyle=1;align=center;verticalAlign=top;childLayout=stackLayout;horizontal=1;startSize=24.830768291766827;horizontalStack=0;resizeParent=1;resizeParentMax=0;resizeLast=0;collapsible=0;marginBottom=0;" vertex="1" parent="1">
          <mxGeometry x="590" y="1468.81" width="188" height="111.83076829176683" as="geometry" />
        </mxCell>
        <mxCell id="SspoBiGvNEf38kH1SiPI-7" value="-char codigoInsumo[30]" style="text;strokeColor=none;fillColor=none;align=left;verticalAlign=top;spacingLeft=4;spacingRight=4;overflow=hidden;rotatable=0;points=[[0,0.5],[1,0.5]];portConstraint=eastwest;" vertex="1" parent="SspoBiGvNEf38kH1SiPI-6">
          <mxGeometry y="24.830768291766827" width="188" height="25" as="geometry" />
        </mxCell>
        <mxCell id="SspoBiGvNEf38kH1SiPI-27" value="-char codigoInsumoInput[30]" style="text;strokeColor=none;fillColor=none;align=left;verticalAlign=top;spacingLeft=4;spacingRight=4;overflow=hidden;rotatable=0;points=[[0,0.5],[1,0.5]];portConstraint=eastwest;" vertex="1" parent="SspoBiGvNEf38kH1SiPI-6">
          <mxGeometry y="49.83076829176683" width="188" height="25" as="geometry" />
        </mxCell>
        <mxCell id="SspoBiGvNEf38kH1SiPI-8" value="-int cantidad" style="text;strokeColor=none;fillColor=none;align=left;verticalAlign=top;spacingLeft=4;spacingRight=4;overflow=hidden;rotatable=0;points=[[0,0.5],[1,0.5]];portConstraint=eastwest;" vertex="1" parent="SspoBiGvNEf38kH1SiPI-6">
          <mxGeometry y="74.83076829176683" width="188" height="25" as="geometry" />
        </mxCell>
        <mxCell id="SspoBiGvNEf38kH1SiPI-12" style="line;strokeWidth=1;fillColor=none;align=left;verticalAlign=middle;spacingTop=-1;spacingLeft=3;spacingRight=3;rotatable=0;labelPosition=right;points=[];portConstraint=eastwest;strokeColor=inherit;" vertex="1" parent="SspoBiGvNEf38kH1SiPI-6">
          <mxGeometry y="99.83076829176683" width="188" height="12" as="geometry" />
        </mxCell>
        <mxCell id="SspoBiGvNEf38kH1SiPI-14" value="ComposicionProducto" style="swimlane;fontStyle=1;align=center;verticalAlign=top;childLayout=stackLayout;horizontal=1;startSize=24.830768291766827;horizontalStack=0;resizeParent=1;resizeParentMax=0;resizeLast=0;collapsible=0;marginBottom=0;" vertex="1" parent="1">
          <mxGeometry x="590" y="1632.08" width="188" height="111.83076829176683" as="geometry" />
        </mxCell>
        <mxCell id="SspoBiGvNEf38kH1SiPI-15" value="-char codigoInsumo[30]" style="text;strokeColor=none;fillColor=none;align=left;verticalAlign=top;spacingLeft=4;spacingRight=4;overflow=hidden;rotatable=0;points=[[0,0.5],[1,0.5]];portConstraint=eastwest;" vertex="1" parent="SspoBiGvNEf38kH1SiPI-14">
          <mxGeometry y="24.830768291766827" width="188" height="25" as="geometry" />
        </mxCell>
        <mxCell id="SspoBiGvNEf38kH1SiPI-16" value="-int cantidad" style="text;strokeColor=none;fillColor=none;align=left;verticalAlign=top;spacingLeft=4;spacingRight=4;overflow=hidden;rotatable=0;points=[[0,0.5],[1,0.5]];portConstraint=eastwest;" vertex="1" parent="SspoBiGvNEf38kH1SiPI-14">
          <mxGeometry y="49.83076829176683" width="188" height="25" as="geometry" />
        </mxCell>
        <mxCell id="SspoBiGvNEf38kH1SiPI-17" value="-char descripcion[30]" style="text;strokeColor=none;fillColor=none;align=left;verticalAlign=top;spacingLeft=4;spacingRight=4;overflow=hidden;rotatable=0;points=[[0,0.5],[1,0.5]];portConstraint=eastwest;" vertex="1" parent="SspoBiGvNEf38kH1SiPI-14">
          <mxGeometry y="74.83076829176683" width="188" height="25" as="geometry" />
        </mxCell>
        <mxCell id="SspoBiGvNEf38kH1SiPI-18" style="line;strokeWidth=1;fillColor=none;align=left;verticalAlign=middle;spacingTop=-1;spacingLeft=3;spacingRight=3;rotatable=0;labelPosition=right;points=[];portConstraint=eastwest;strokeColor=inherit;" vertex="1" parent="SspoBiGvNEf38kH1SiPI-14">
          <mxGeometry y="99.83076829176683" width="188" height="12" as="geometry" />
        </mxCell>
        <mxCell id="SspoBiGvNEf38kH1SiPI-20" value="ComposicionRemito" style="swimlane;fontStyle=1;align=center;verticalAlign=top;childLayout=stackLayout;horizontal=1;startSize=24.830768291766827;horizontalStack=0;resizeParent=1;resizeParentMax=0;resizeLast=0;collapsible=0;marginBottom=0;" vertex="1" parent="1">
          <mxGeometry x="580" y="516.51" width="188" height="111.83076829176683" as="geometry" />
        </mxCell>
        <mxCell id="SspoBiGvNEf38kH1SiPI-21" value="-int nroRemito" style="text;strokeColor=none;fillColor=none;align=left;verticalAlign=top;spacingLeft=4;spacingRight=4;overflow=hidden;rotatable=0;points=[[0,0.5],[1,0.5]];portConstraint=eastwest;" vertex="1" parent="SspoBiGvNEf38kH1SiPI-20">
          <mxGeometry y="24.830768291766827" width="188" height="25" as="geometry" />
        </mxCell>
        <mxCell id="SspoBiGvNEf38kH1SiPI-42" value="-int idRecurso" style="text;strokeColor=none;fillColor=none;align=left;verticalAlign=top;spacingLeft=4;spacingRight=4;overflow=hidden;rotatable=0;points=[[0,0.5],[1,0.5]];portConstraint=eastwest;" vertex="1" parent="SspoBiGvNEf38kH1SiPI-20">
          <mxGeometry y="49.83076829176683" width="188" height="25" as="geometry" />
        </mxCell>
        <mxCell id="SspoBiGvNEf38kH1SiPI-22" value="-int cantidad" style="text;strokeColor=none;fillColor=none;align=left;verticalAlign=top;spacingLeft=4;spacingRight=4;overflow=hidden;rotatable=0;points=[[0,0.5],[1,0.5]];portConstraint=eastwest;" vertex="1" parent="SspoBiGvNEf38kH1SiPI-20">
          <mxGeometry y="74.83076829176683" width="188" height="25" as="geometry" />
        </mxCell>
        <mxCell id="SspoBiGvNEf38kH1SiPI-24" style="line;strokeWidth=1;fillColor=none;align=left;verticalAlign=middle;spacingTop=-1;spacingLeft=3;spacingRight=3;rotatable=0;labelPosition=right;points=[];portConstraint=eastwest;strokeColor=inherit;" vertex="1" parent="SspoBiGvNEf38kH1SiPI-20">
          <mxGeometry y="99.83076829176683" width="188" height="12" as="geometry" />
        </mxCell>
        <mxCell id="SspoBiGvNEf38kH1SiPI-29" value="&quot;contiene una&quot;" style="curved=1;startArrow=diamondThin;startSize=14;startFill=1;endArrow=none;entryX=1;entryY=0.5;rounded=0;entryDx=0;entryDy=0;exitX=-0.013;exitY=0.79;exitDx=0;exitDy=0;exitPerimeter=0;" edge="1" parent="1" source="SspoBiGvNEf38kH1SiPI-43" target="GeJDQEC-XlV1NRhU4zai-3">
          <mxGeometry relative="1" as="geometry">
            <Array as="points">
              <mxPoint x="381" y="300" />
            </Array>
            <mxPoint x="551" y="200" as="sourcePoint" />
            <mxPoint x="308" y="368" as="targetPoint" />
          </mxGeometry>
        </mxCell>
        <mxCell id="SspoBiGvNEf38kH1SiPI-32" value="ComposicionProveedor" style="swimlane;fontStyle=1;align=center;verticalAlign=top;childLayout=stackLayout;horizontal=1;startSize=24.830768291766827;horizontalStack=0;resizeParent=1;resizeParentMax=0;resizeLast=0;collapsible=0;marginBottom=0;" vertex="1" parent="1">
          <mxGeometry x="590" y="1340" width="188" height="86.83076829176683" as="geometry" />
        </mxCell>
        <mxCell id="SspoBiGvNEf38kH1SiPI-33" value="-int idProveedor" style="text;strokeColor=none;fillColor=none;align=left;verticalAlign=top;spacingLeft=4;spacingRight=4;overflow=hidden;rotatable=0;points=[[0,0.5],[1,0.5]];portConstraint=eastwest;" vertex="1" parent="SspoBiGvNEf38kH1SiPI-32">
          <mxGeometry y="24.830768291766827" width="188" height="25" as="geometry" />
        </mxCell>
        <mxCell id="SspoBiGvNEf38kH1SiPI-34" value="-char codigoInput[30]" style="text;strokeColor=none;fillColor=none;align=left;verticalAlign=top;spacingLeft=4;spacingRight=4;overflow=hidden;rotatable=0;points=[[0,0.5],[1,0.5]];portConstraint=eastwest;" vertex="1" parent="SspoBiGvNEf38kH1SiPI-32">
          <mxGeometry y="49.83076829176683" width="188" height="25" as="geometry" />
        </mxCell>
        <mxCell id="SspoBiGvNEf38kH1SiPI-36" style="line;strokeWidth=1;fillColor=none;align=left;verticalAlign=middle;spacingTop=-1;spacingLeft=3;spacingRight=3;rotatable=0;labelPosition=right;points=[];portConstraint=eastwest;strokeColor=inherit;" vertex="1" parent="SspoBiGvNEf38kH1SiPI-32">
          <mxGeometry y="74.83076829176683" width="188" height="12" as="geometry" />
        </mxCell>
        <mxCell id="SspoBiGvNEf38kH1SiPI-37" value="Remito" style="swimlane;fontStyle=1;align=center;verticalAlign=top;childLayout=stackLayout;horizontal=1;startSize=25.91111077202691;horizontalStack=0;resizeParent=1;resizeParentMax=0;resizeLast=0;collapsible=0;marginBottom=0;" vertex="1" parent="1">
          <mxGeometry x="410" y="516.51" width="130" height="90.91111077202692" as="geometry" />
        </mxCell>
        <mxCell id="SspoBiGvNEf38kH1SiPI-38" value="-int nroRemito" style="text;strokeColor=none;fillColor=none;align=left;verticalAlign=top;spacingLeft=4;spacingRight=4;overflow=hidden;rotatable=0;points=[[0,0.5],[1,0.5]];portConstraint=eastwest;" vertex="1" parent="SspoBiGvNEf38kH1SiPI-37">
          <mxGeometry y="25.91111077202691" width="130" height="26" as="geometry" />
        </mxCell>
        <mxCell id="SspoBiGvNEf38kH1SiPI-39" value="-Fecha fecha" style="text;strokeColor=none;fillColor=none;align=left;verticalAlign=top;spacingLeft=4;spacingRight=4;overflow=hidden;rotatable=0;points=[[0,0.5],[1,0.5]];portConstraint=eastwest;" vertex="1" parent="SspoBiGvNEf38kH1SiPI-37">
          <mxGeometry y="51.91111077202691" width="130" height="26" as="geometry" />
        </mxCell>
        <mxCell id="SspoBiGvNEf38kH1SiPI-41" style="line;strokeWidth=1;fillColor=none;align=left;verticalAlign=middle;spacingTop=-1;spacingLeft=3;spacingRight=3;rotatable=0;labelPosition=right;points=[];portConstraint=eastwest;strokeColor=inherit;" vertex="1" parent="SspoBiGvNEf38kH1SiPI-37">
          <mxGeometry y="77.91111077202692" width="130" height="13" as="geometry" />
        </mxCell>
        <mxCell id="SspoBiGvNEf38kH1SiPI-44" value="&quot;contiene una&quot;" style="curved=1;startArrow=diamondThin;startSize=14;startFill=1;endArrow=none;exitX=-0.01;exitY=0.255;entryX=1;entryY=1;rounded=0;entryDx=0;entryDy=0;exitDx=0;exitDy=0;exitPerimeter=0;" edge="1" parent="1" source="SspoBiGvNEf38kH1SiPI-39" target="GeJDQEC-XlV1NRhU4zai-1">
          <mxGeometry relative="1" as="geometry">
            <Array as="points">
              <mxPoint x="270" y="470" />
            </Array>
            <mxPoint x="420" y="491" as="sourcePoint" />
            <mxPoint x="147" y="326" as="targetPoint" />
          </mxGeometry>
        </mxCell>
        <mxCell id="SspoBiGvNEf38kH1SiPI-45" value="ComposicionFactura" style="swimlane;fontStyle=1;align=center;verticalAlign=top;childLayout=stackLayout;horizontal=1;startSize=24.830768291766827;horizontalStack=0;resizeParent=1;resizeParentMax=0;resizeLast=0;collapsible=0;marginBottom=0;" vertex="1" parent="1">
          <mxGeometry x="580" y="370.08" width="188" height="136.83076829176684" as="geometry" />
        </mxCell>
        <mxCell id="SspoBiGvNEf38kH1SiPI-46" value="-int nroFactura" style="text;strokeColor=none;fillColor=none;align=left;verticalAlign=top;spacingLeft=4;spacingRight=4;overflow=hidden;rotatable=0;points=[[0,0.5],[1,0.5]];portConstraint=eastwest;" vertex="1" parent="SspoBiGvNEf38kH1SiPI-45">
          <mxGeometry y="24.830768291766827" width="188" height="25" as="geometry" />
        </mxCell>
        <mxCell id="SspoBiGvNEf38kH1SiPI-47" value="-char idRecurso[30]" style="text;strokeColor=none;fillColor=none;align=left;verticalAlign=top;spacingLeft=4;spacingRight=4;overflow=hidden;rotatable=0;points=[[0,0.5],[1,0.5]];portConstraint=eastwest;" vertex="1" parent="SspoBiGvNEf38kH1SiPI-45">
          <mxGeometry y="49.83076829176683" width="188" height="25" as="geometry" />
        </mxCell>
        <mxCell id="SspoBiGvNEf38kH1SiPI-52" value="-int precioUnitario" style="text;strokeColor=none;fillColor=none;align=left;verticalAlign=top;spacingLeft=4;spacingRight=4;overflow=hidden;rotatable=0;points=[[0,0.5],[1,0.5]];portConstraint=eastwest;" vertex="1" parent="SspoBiGvNEf38kH1SiPI-45">
          <mxGeometry y="74.83076829176683" width="188" height="25" as="geometry" />
        </mxCell>
        <mxCell id="SspoBiGvNEf38kH1SiPI-48" value="-int cantidad" style="text;strokeColor=none;fillColor=none;align=left;verticalAlign=top;spacingLeft=4;spacingRight=4;overflow=hidden;rotatable=0;points=[[0,0.5],[1,0.5]];portConstraint=eastwest;" vertex="1" parent="SspoBiGvNEf38kH1SiPI-45">
          <mxGeometry y="99.83076829176683" width="188" height="25" as="geometry" />
        </mxCell>
        <mxCell id="SspoBiGvNEf38kH1SiPI-49" style="line;strokeWidth=1;fillColor=none;align=left;verticalAlign=middle;spacingTop=-1;spacingLeft=3;spacingRight=3;rotatable=0;labelPosition=right;points=[];portConstraint=eastwest;strokeColor=inherit;" vertex="1" parent="SspoBiGvNEf38kH1SiPI-45">
          <mxGeometry y="124.83076829176683" width="188" height="12" as="geometry" />
        </mxCell>
      </root>
    </mxGraphModel>
  </diagram>
</mxfile>
